<?xml version="1.0" encoding="UTF-8" standalone="no"?>
<!-- Created with Inkscape (http://www.inkscape.org/) -->

<svg
   version="1.1"
   id="svg1685"
   width="669.24371"
   height="623.81482"
   viewBox="0 0 669.24372 623.81482"
   xmlns:xlink="http://www.w3.org/1999/xlink"
   xmlns="http://www.w3.org/2000/svg"
   xmlns:svg="http://www.w3.org/2000/svg">
  <style
     type="text/css"
     id="style2">
    #encounterpath{
      stroke-dasharray:2650;
      animation: encounterkf 2s ease-out;
      animation-fill-mode: forwards;
      fill:none;
      stroke-width:3;
      fill-opacity:1;
      fill-rule:nonzero;
      stroke: url(#EncounterGradient);
      stroke-opacity:1;
      stroke-linejoin:miter;
      paint-order:normal
    }
    @keyframes encounterkf{
      from{
        stroke-dashoffset:2650;
      }
      to{
        stroke-dashoffset: 0;
      }
    }
  </style>
  <defs
     id="defs1689">
    <linearGradient
       id="linearGradient2204">
      <stop
         style="stop-color:#9932cc;stop-opacity:1;"
         offset="0"
         id="stop2200" />
      <stop
         style="stop-color:#483d8b;stop-opacity:1;"
         offset="1"
         id="stop2202" />
    </linearGradient>
    <linearGradient
       xlink:href="#linearGradient2204"
       id="EncounterGradient"
       x1="7.1182423"
       y1="342.7149"
       x2="673.36096"
       y2="342.7149"
       gradientUnits="userSpaceOnUse"
       gradientTransform="translate(-5.6178018,-30.80889)" />
  </defs>
  <path
     d="m 217.3243,617.9416 c -22.77595,-12.27467 -40.67704,-32.80626 -50.64211,-58.0838 -0.72274,-1.83334 -2.26721,-5.73334 -3.43213,-8.66667 -2.73624,-6.88995 -6.20119,-24.3662 -6.20119,-31.27712 0,-4.27577 -0.48977,-5.38955 -2.36998,-5.38955 -1.30351,0 -3.55351,-0.76997 -5,-1.71105 -1.44651,-0.94108 -5.03002,-2.52824 -7.96335,-3.52703 C 138.7822,508.2876 129.1822,503.98162 120.3822,499.71754 105.89026,492.69542 98.897768,488.60815 80.895301,476.63662 70.859111,469.96261 54.085181,455.20838 45.048866,445.10635 23.776816,421.32555 17.523396,409.56481 6.4556612,372.52446 1.0009312,354.26914 0.02447053,335.00338 3.65116,317.19112 c 2.1566572,-10.59228 5.4317232,-23.87931 6.695616,-27.16427 0.600079,-1.55965 1.855629,-5.53573 2.790111,-8.83573 4.668241,-16.48527 21.490559,-44.18929 38.861809,-64 8.78632,-10.02019 36.04038,-37.39207 41.716839,-41.89718 2.933333,-2.32802 9.533335,-7.5752 14.666665,-11.66037 16.05484,-12.77664 45.50594,-29.78951 68.66667,-39.66629 4.03334,-1.72 10.33334,-4.47551 14,-6.12336 3.66667,-1.64786 8.76667,-3.65762 11.33334,-4.46614 2.56666,-0.80852 9.16666,-2.88652 14.66666,-4.61777 5.5,-1.73126 13,-3.80287 16.66667,-4.60359 3.66667,-0.80071 9.78695,-2.14819 13.60063,-2.99439 3.81368,-0.8462 7.48583,-2.23582 8.16033,-3.08806 1.29155,-1.63189 2.34974,-19.18243 3.75123,-62.216191 0.91363,-28.0536435 1.97247,-32.6512185 7.86003,-34.1288995 5.66694,-1.42231206 29.46877,4.00431 43.96112,10.0227715 7.61509,3.162439 11.18644,4.535349 16.47458,6.33321 3.19435,1.086016 9.65493,4.329201 14.35682,7.207079 4.70189,2.877879 8.90452,5.232505 9.33916,5.232505 0.43464,0 5.07408,3.102054 10.30985,6.893453 20.0532,14.521197 34.86602,31.984822 41.39432,48.802042 l 2.96495,7.63784 8.58016,-0.15071 c 4.71909,-0.0829 24.18016,-0.84149 43.24683,-1.68578 19.06667,-0.84428 48.76667,-1.19599 66,-0.78157 28.7926,0.6924 67.57734,3.59909 74,5.54588 1.46667,0.44457 6.26667,1.25574 10.66667,1.80261 10.11503,1.25719 18.52173,3.70901 32,9.33284 12.7923,5.3376 23.15807,14.78133 25.71184,23.42476 3.53052,11.94923 2.7144,15.00591 -15.8591,59.39835 -20.50798,49.01605 -20.04892,48.06184 -24.53722,51.00269 -5.85115,3.83382 -9.99693,1.81959 -18.09841,-8.79305 -3.96942,-5.19979 -7.61766,-10.07897 -8.10722,-10.84264 -0.52282,-0.81555 -4.00576,1.45904 -8.44078,5.5124 -5.8746,5.36907 -8.5195,6.90089 -11.91519,6.90089 -4.91311,0 -10.66436,-4.50404 -12.74749,-9.98309 -2.00684,-5.2784 -4.72335,-5.41553 -9.14947,-0.46184 -3.46908,3.88257 -4.79096,4.44493 -10.4482,4.44493 -5.415,0 -7.62371,-0.84202 -13.47448,-5.13688 -4.90278,-3.59897 -7.48731,-4.74688 -8.63272,-3.83418 -0.8992,0.71649 -3.4349,1.62088 -5.6349,2.00974 -7.12084,1.25868 -17.84337,4.64762 -23.7464,7.50522 -3.1692,1.5342 -6.89276,2.78944 -8.27456,2.78944 -1.54138,0 -2.02282,0.46538 -1.2457,1.20414 0.69666,0.6623 9.66666,1.50076 19.93333,1.86328 19.69433,0.69543 42.18476,2.87332 50,4.84184 2.56667,0.6465 9.0526,2.21439 14.41319,3.4842 11.2668,2.66888 17.84901,5.74808 23.15601,10.83251 4.87871,4.67411 5.16415,11.874 0.66327,16.73052 -4.47557,4.82923 -50.36407,27.45596 -72.23247,35.61645 -10.26667,3.83114 -20.76667,7.77746 -23.33333,8.76959 -11.59472,4.48191 -30.70016,11.20562 -38,13.37322 -7.41067,2.2005 -22.54204,6.88245 -32.00001,9.90141 -2.2,0.70224 -12.1,3.3696 -22,5.92747 -9.9,2.55786 -21.6,5.65208 -26,6.87601 -10.6237,2.95517 -16.95268,4.34129 -27.125,5.94068 -4.65209,0.73145 -10.95209,1.87017 -14,2.53051 -7.59025,1.64444 -20.00645,3.6285 -38.20833,6.10557 -8.43334,1.14768 -18.63334,2.69432 -22.66667,3.43699 -4.03333,0.74266 -19.93333,1.644 -35.33333,2.00297 -40.15646,0.93604 -49.3779,3.09675 -67.49153,15.81417 -7.33189,5.14767 -14.50848,14.2869 -14.50848,18.47626 0,1.16316 -0.52197,2.43742 -1.15993,2.83172 -3.10447,1.91867 8.16173,27.44049 12.11317,27.44049 1.30906,0 2.3801,-0.52738 2.3801,-1.17197 0,-1.30371 23.35874,-25.31951 30.66666,-31.52928 14.21708,-12.08071 33.5979,-20.46356 52.66667,-22.7801 10.18854,-1.23774 13.52398,-1.22364 27.05782,0.1144 9.49049,0.93832 11.42758,1.56338 13.66666,4.40991 5.03298,6.3984 3.61056,10.81756 -7.43888,23.1112 -21.72024,24.16602 -43.48132,62.09179 -50.51577,88.04026 -1.06443,3.92638 -3.10838,11.33888 -4.54214,16.47221 -6.86797,24.58979 -6.71106,59.32214 0.39456,87.33334 1.20916,4.76667 2.46879,9.86667 2.79917,11.33333 0.6431,2.85499 -2.38347,6.95779 -7.13095,9.66667 -4.15191,2.36904 -5.29676,2.14164 -14.68171,-2.9162 z M 548.71555,146.5997 c 6.51074,-5.43146 1.82902,-15.35108 -7.99781,-16.94576 -6.72787,-1.09177 -14.21031,1.7009 -15.80662,5.8995 -1.64681,4.33146 -0.33901,10.55532 2.5753,12.25585 4.04123,2.35812 17.89899,1.56853 21.22913,-1.20959 z M 397.04087,422.12134 c -1.62502,-1.68839 -3.80411,-5.43839 -4.84244,-8.33333 -6.35202,-17.70995 -13.81622,-40.07927 -13.81622,-41.40559 0,-0.85542 1.65,-1.86892 3.66667,-2.25224 2.01667,-0.38332 7.26667,-1.68422 11.66667,-2.89088 4.4,-1.20667 10.1,-2.7177 12.66666,-3.35786 10.35891,-2.58361 29.16718,-7.90408 37.33334,-10.56082 4.76667,-1.55076 11.96667,-3.79836 16,-4.99464 4.03333,-1.1963 8.53333,-2.60788 10,-3.13688 8.18385,-2.95172 12.78939,-4.07951 13.88764,-3.40075 1.83429,1.13365 -4.35985,15.8926 -10.8754,25.91309 -11.51112,17.70336 -42.3475,45.02947 -60.92844,53.99262 -8.88534,4.28615 -10.98592,4.34696 -14.75848,0.42728 z"
     id="encounterpath"/>
</svg>
