<?xml version="1.0" encoding="UTF-8" standalone="no"?>
<!-- Created with Inkscape (http://www.inkscape.org/) -->

<svg
   version="1.1"
   id="svg2"
   width="666.78815"
   height="617.73389"
   viewBox="0 0 666.78815 617.73388"
   xmlns:xlink="http://www.w3.org/1999/xlink"
   xmlns="http://www.w3.org/2000/svg"
   xmlns:svg="http://www.w3.org/2000/svg">
  <style
     type="text/css"
     id="style2">
    #meddlerpath{
      stroke-dasharray:3100;
      animation: meddlerkf 2s ease-out;
      animation-fill-mode: forwards;
      fill:none;
      stroke-width:3;
      fill-opacity:1;
      fill-rule:nonzero;
      stroke: url(#meddlerGradient);
      stroke-opacity:1;
      stroke-linejoin:miter;
      paint-order:normal
    }
    @keyframes meddlerkf{
      from{
        stroke-dashoffset:3100;
      }
      to{
        stroke-dashoffset: 0;
      }
    }
  </style>
  <defs
     id="defs6">
    <linearGradient
       id="linearGradient822">
      <stop
         style="stop-color:#ffd700;stop-opacity:1;"
         offset="0"
         id="stop818" />
      <stop
         style="stop-color:#add8e6;stop-opacity:1;"
         offset="1"
         id="stop820" />
    </linearGradient>
    <linearGradient
       xlink:href="#linearGradient822"
       id="meddlerGradient"
       x1="8.9020872"
       y1="341.81253"
       x2="672.69659"
       y2="341.81253"
       gradientUnits="userSpaceOnUse"
       gradientTransform="translate(-7.4075798,-32.196105)" />
  </defs>
  <path
     d="m 353.29965,614.90643 c -2.78938,-1.89543 -10.21884,-5.85832 -16.50994,-8.80643 -9.46589,-4.43587 -13.86049,-5.63568 -25.48448,-6.95776 -8.34079,-0.94865 -15.66731,-1.13872 -18.03733,-0.46795 -2.19516,0.6213 -5.69635,1.12963 -7.78044,1.12963 h -3.78923 l 0.58723,-8.33333 c 0.69882,-9.91711 3.5629,-20.25552 9.66745,-34.89644 6.50104,-15.59183 10.65301,-23.77888 14.30432,-28.20592 1.76808,-2.14371 3.62412,-5.01579 4.12455,-6.38242 0.8186,-2.23557 0.41076,-2.39114 -4.06667,-1.55117 -15.73509,2.95192 -30.88687,11.19397 -44.63825,24.28168 -5.6369,5.36484 -10.62635,9.75427 -11.08766,9.75427 -3.06744,0 -6.10645,-3.70067 -8.99778,-10.95679 -4.99428,-12.53372 -6.36606,-19.67161 -4.95228,-25.76877 3.04929,-13.15064 -0.23367,-13.22038 -12.91845,-0.27444 -9.0402,9.22633 -15.94034,18.94634 -20.608,29.02981 -1.18052,2.55027 -2.83956,6.13685 -3.68673,7.97019 -3.32203,7.18902 -8.16621,29.07153 -8.16664,36.89094 -5.2e-4,9.73302 -2.66749,10.69946 -9.49953,3.44239 -13.50818,-14.34852 -17.54174,-22.5812 -19.81747,-40.44836 -0.87928,-6.9034 -1.88809,-14.03691 -2.24181,-15.85224 l -0.64312,-3.30061 -2.57027,3.30061 c -2.75552,3.53848 -3.41984,4.7146 -11.18895,19.80901 -6.64696,12.91424 -7.69145,16.98367 -8.33956,32.49159 -0.47379,11.33706 -0.8448,13 -2.90036,13 -3.55528,0 -17.05672,-9.96619 -24.69139,-18.22615 -8.39964,-9.08757 -11.38703,-16.50161 -12.39304,-30.75676 -0.43116,-6.10968 -1.29227,-11.42266 -1.91356,-11.80664 -3.695379,-2.28388 -18.472642,25.16896 -21.057456,39.12002 -0.886095,4.78253 -1.15866,11.73153 -0.639977,16.31608 l 0.903469,7.98561 -4.024405,-2.00764 c -5.016323,-2.50246 -22.982802,-21.24847 -22.982802,-23.97996 0,-1.10775 -0.568458,-3.05593 -1.263241,-4.32932 -0.694781,-1.27339 -2.235708,-6.96524 -3.42428,-12.64857 -1.188573,-5.68334 -2.762344,-10.33334 -3.497269,-10.33334 -3.718619,0 -24.826258,27.08126 -30.1375358,38.66667 -3.406537,7.43064 -5.626966,9.9926 -7.1743023,8.27781 -0.468738,-0.51946 -0.3063412,-7.84448 0.3608818,-16.27781 0.6672235,-8.43333 1.8135355,-23.13333 2.5473625,-32.66667 0.733826,-9.53333 1.982663,-23.03333 2.775194,-30 0.79253,-6.96666 1.926968,-17.46667 2.520972,-23.33333 0.9586598,-9.46818 2.4745428,-22.36759 6.6592188,-56.66667 0.67103,-5.5 2.168707,-16.9 3.328172,-25.33333 1.159464,-8.43334 2.618264,-19.83334 3.241779,-25.33334 1.373348,-12.11427 3.704376,-28.70185 5.445044,-38.74693 0.706568,-4.07747 1.2805,-9.17747 1.275403,-11.33334 -0.0051,-2.15585 0.940029,-10.21973 2.100279,-17.91973 1.160249,-7.7 2.71812,-18.2 3.461934,-23.33334 1.223947,-8.44688 2.440269,-15.45794 6.592475,-38 0.742932,-4.03333 2.180455,-10.03333 3.194494,-13.33333 1.014039,-3.3 2.827249,-9.6 4.029359,-14 3.380372,-12.37296 7.342924,-24.92643 9.259185,-29.33334 0.956628,-2.2 4.30365,-10.3 7.437827,-18 3.134178,-7.7 6.116019,-14.6 6.626315,-15.33333 0.510296,-0.73333 3.632523,-6.43333 6.938283,-12.66667 14.190181,-26.75697 24.612491,-43.13634 35.934091,-56.47285 9.40276,-11.076175 33.51943,-36.860488 34.47646,-36.860488 0.48673,0 5.48564,-3.925507 11.10868,-8.723349 12.21741,-10.424464 29.95858,-21.796554 48.59048,-31.146473 13.57082,-6.810159 17.67377,-8.394268 32.92608,-12.712435 4.4,-1.245708 9.37823,-2.8243087 11.06273,-3.5080007 1.68451,-0.683694 4.98847,-1.243078 7.34214,-1.243078 2.35368,0 6.354,-0.594986 8.88962,-1.322193 2.53562,-0.727207 16.03166,-2.303539 29.9912,-3.502961 26.30312,-2.26000203 26.59787,-2.24928203 62.71431,2.281049 22.25748,2.791905 43.98407,6.1614367 58,8.9950977 11.56751,2.338652 35.72445,9.641109 40.16369,12.141173 1.19002,0.670191 6.89002,3.768914 12.66666,6.886049 9.57564,5.167113 13.6151,7.917521 30.37447,20.681562 12.33456,9.394069 39.46186,40.728322 39.46186,45.581682 0,0.771555 -3.44112,2.117185 -7.64694,2.990325 -11.68456,2.4257 -20.65049,8.82118 -24.86965,17.73976 -3.3624,7.10753 -3.48342,8.21504 -3.48342,31.88015 0,23.7409 -0.0949,24.60173 -3,27.20012 -5.59317,5.00272 -10.63821,6.05764 -25.90064,5.41581 -7.93798,-0.33381 -19.83269,-1.56128 -26.43269,-2.72771 -6.6,-1.16642 -14.4,-2.46298 -17.33333,-2.88125 -2.93334,-0.41827 -10.73334,-1.61949 -17.33334,-2.66937 -47.62709,-7.57626 -72.14788,-5.56084 -83.44308,6.85834 -4.98648,5.48271 -7.03182,13.70524 -5.16946,20.78196 1.9197,7.29452 10.24359,20.1597 17.55354,27.13025 21.64005,20.63528 65.16321,44.80913 103.01224,57.2156 5.10762,1.67421 9.52192,3.75004 9.80955,4.61294 0.28764,0.8629 -0.68576,2.87603 -2.16311,4.4736 -4.42329,4.78331 -8.07985,13.09899 -9.34253,21.24669 -2.27707,14.69298 2.28572,29.50196 14.62381,47.46314 4.3555,6.34051 12.25567,17.84114 17.55594,25.55695 5.30026,7.7158 10.61462,16.1158 11.80968,18.66667 12.46536,26.6074 12.36706,26.34341 23.32205,62.63792 0.33201,1.1 1.49287,6.5 2.57967,12 7.65209,38.72511 9.83144,59.61332 9.84214,94.33334 0.005,19.19276 -0.48414,31 -1.28666,31 -0.71294,0 -3.00926,-3.45 -5.10295,-7.66667 -7.65788,-15.42285 -15.98695,-25.77161 -27.26749,-33.87951 l -3.66667,-2.63541 v 3.26129 c 0,1.79372 0.90624,5.43022 2.01385,8.08112 1.10762,2.65091 2.39747,10.22419 2.86632,16.82951 0.7393,10.4151 0.57284,12.00967 -1.25364,12.00967 -1.17834,0 -3.46886,-2.74795 -5.19966,-6.23804 -1.70144,-3.43094 -6.07563,-9.50959 -9.7204,-13.50814 -6.7598,-7.4159 -19.47324,-17.58716 -21.98287,-17.58716 -1.94171,0 -1.73453,3.69004 0.65984,11.75278 2.66787,8.98369 2.24908,31.58056 -0.58529,31.58056 -1.02768,0 -4.31979,-4.8 -7.31578,-10.66667 -8.32816,-16.308 -26.74237,-32.66667 -36.77139,-32.66667 -3.59718,0 -3.42562,1.61187 1.04238,9.79359 2.06434,3.7802 4.76434,9.98581 6,13.79028 2.47564,7.62228 3.0292,20.41614 0.88334,20.41614 -0.7498,0 -4.22468,-3 -7.72193,-6.66667 -3.49727,-3.66667 -6.93992,-6.66667 -7.65035,-6.66667 -0.71041,0 -2.90194,-1.49313 -4.87006,-3.31807 -9.19338,-8.52458 -37.89499,-19.3486 -51.30591,-19.3486 -2.85555,0 -2.0328,3.50966 2.57397,10.97998 7.25252,11.76062 11.42194,27.36843 7.89364,29.54904 -0.61082,0.37751 -3.39281,-0.86441 -6.18218,-2.75984 z m 31.29278,-466.30218 c 18.18272,-5.5683 32.82415,-16.64188 38.5119,-29.12725 3.72712,-8.18156 3.60557,-9.19775 -1.67507,-14.00302 -12.1272,-11.035505 -23.70513,-18.195305 -39.50112,-24.427515 -6.36157,-2.50992 -36.28793,-2.51558 -42.67141,-0.008 -9.26366,3.63888 -14.0615,5.7049 -17.53669,7.55157 -1.94648,1.03439 -4.47537,1.88066 -5.61976,1.88066 -3.18693,0 -4.73077,4.18953 -3.95782,10.740355 2.5524,21.63156 16.136,37.31103 40.44997,46.69109 7.43124,2.8669 23.76136,3.22527 32,0.70224 z m -18.66666,-17.83702 c -10.30951,-1.3011 -16.51283,-7.9374 -16.51283,-17.66541 0,-14.060875 15.67961,-21.887515 29.56595,-14.758145 18.18472,9.336185 7.8292,35.058975 -13.05312,32.423555 z m 74.39768,-20.55125 c 0.44952,-2.33418 -14.8645,-18.513075 -24.41752,-25.796545 -7.6427,-5.82697 -23.40115,-13.74398 -30.8844,-15.51624 -3.536,-0.83744 -14.83755,-1.756607 -25.11456,-2.042602 -18.90468,-0.526092 -24.4073,0.252124 -38.83959,5.492942 -6.85,2.48746 -24.75935,12.95601 -25.38383,14.83761 -0.25321,0.76299 0.40527,2.56299 1.46331,4 1.91009,2.59424 1.9598,2.59413 7.01797,-0.0161 2.80185,-1.44587 7.19427,-3.87376 9.76093,-5.39529 6.28135,-3.72365 25.33922,-9.97586 30.40817,-9.97586 2.24669,0 5.61022,-0.57992 7.47452,-1.28872 3.71901,-1.41397 22.5183,0.25434 32.78398,2.90935 14.60644,3.77767 32.12247,15.1501 45.19892,29.345765 5.93266,6.44044 9.71693,7.67851 10.5321,3.44569 z M 619.23073,361.8701 c 2.87804,-6.71419 6.7022,-25.89623 6.6793,-33.50343 -0.0216,-7.19588 -4.3072,-24.0218 -7.92402,-31.11133 -2.96409,-5.81011 -9.01662,-13.98116 -16.71154,-22.56095 -13.29438,-14.82312 -47.48942,-32.07272 -78.29063,-39.49349 -20.67174,-4.98032 -24.89784,-4.50379 -29.06202,3.27705 -3.82009,7.13792 8.16286,22.67507 24.56955,31.85699 8.91736,4.99056 28.46931,13.46897 31.06059,13.46897 0.93893,0 1.70715,0.51844 1.70715,1.15211 0,2.97901 -39.66771,3.98762 -54.00001,1.37302 -4.4,-0.80268 -10.7,-1.94289 -14,-2.53381 -12.90344,-2.31059 -34.5646,-9.70603 -52.24789,-17.8382 -4.16968,-1.91755 -7.9019,-3.48645 -8.29383,-3.48645 -1.71689,0 -16.30657,-7.23771 -22.58181,-11.20247 -3.78206,-2.38955 -7.77647,-4.75169 -8.87647,-5.24921 -15.41123,-6.97034 -46.80648,-35.03678 -48.41912,-43.2853 -1.17903,-6.03056 1.71295,-10.02027 9.08827,-12.538 12.32008,-4.20575 37.3603,-2.53429 92.66419,6.18539 6.96666,1.09842 20.76666,2.69356 30.66666,3.54473 15.86736,1.36424 18.76267,1.28844 24.43704,-0.63983 20.99974,-7.13612 23.95391,-13.21322 23.30131,-47.93377 -0.3628,-19.30257 -0.14351,-21.93393 2.10427,-25.24937 9.4538,-13.94425 29.46743,-13.21994 51.91125,1.8787 11.44054,7.69639 34.5967,29.87796 46.9128,44.93836 4.40001,5.38042 9.12982,11.08042 10.5107,12.66667 2.16663,2.48887 5.15073,7.02765 12.43703,18.91659 4.02757,6.57173 11.64278,23.23451 13.38721,29.29247 8.49829,29.51233 6.12727,61.20477 -6.37629,85.22921 -11.59822,22.28488 -28.63001,45.6461 -34.88046,47.84288 -2.06259,0.72491 -2.04323,0.29816 0.22677,-4.99753 z M 598.81777,189.0568 c 7.53392,-5.92373 7.78858,-11.47485 0.77467,-16.88692 -7.61981,-5.8796 -14.89605,-7.78161 -22.07725,-5.771 -13.3518,3.73827 -16.66156,12.91595 -7.36316,20.41736 2.6911,2.17104 6.88688,4.35513 9.32393,4.85357 5.85901,1.1983 16.28608,-0.21036 19.34181,-2.61301 z"
     id="meddlerpath"
     style="stroke:url(#meddlerGradient)" />
</svg>
