<?xml version="1.0" encoding="UTF-8" standalone="no"?>
<!-- Created with Inkscape (http://www.inkscape.org/) -->

<svg
   version="1.1"
   id="svg2"
   width="606.16693"
   height="620.12012"
   viewBox="0 0 606.16693 620.12012"
   xmlns:xlink="http://www.w3.org/1999/xlink"
   xmlns="http://www.w3.org/2000/svg"
   xmlns:svg="http://www.w3.org/2000/svg">
  <style
     type="text/css"
     id="style2">
    #logopath{
      stroke-dasharray:5150;
      animation: logokf 2s ease-out;
      animation-fill-mode: forwards;
      fill:none;
      stroke-width:3;
      fill-opacity:1;
      fill-rule:nonzero;
      stroke: url(#LogoGradient);
      stroke-opacity:1;
      stroke-linejoin:miter;
      paint-order:normal
    }
    @keyframes logokf{
      from{
        stroke-dashoffset:5150;
      }
      to{
        stroke-dashoffset: 0;
      }
    }
  </style>
  <defs
     id="defs6">
    <linearGradient
       id="linearGradient876">
      <stop
         style="stop-color:#da70d6;stop-opacity:1;"
         offset="0"
         id="stop872" />
      <stop
         style="stop-color:#dda0dd;stop-opacity:1;"
         offset="1"
         id="stop874" />
    </linearGradient>
    <linearGradient
       xlink:href="#linearGradient876"
       id="LogoGradient"
       x1="38.795216"
       y1="342.10651"
       x2="641.96167"
       y2="342.10651"
       gradientUnits="userSpaceOnUse"
       gradientTransform="translate(-37.294439,-32.046475)" />
  </defs>
  <path
     d="m 131.64174,605.62021 c -7.34633,-7.15 -15.57235,-15.1 -18.28003,-17.66667 -16.003929,-15.17043 -60.921205,-60.25897 -62.322813,-62.56044 -2.149025,-3.52876 -2.068985,-10.79839 0.151064,-13.72048 3.243663,-4.26937 8.761395,-5.05241 35.6024,-5.05241 19.102119,0 26.579869,-0.43026 26.579869,-1.52935 0,-0.84114 -2.00032,-3.99114 -4.44516,-7 -9.307709,-11.455 -42.536409,-57.45866 -43.685219,-60.48024 -1.55209,-4.0823 -1.47279,-19.61031 0.16457,-32.22603 3.59457,-27.69583 18.03544,-56.24591 40.179419,-79.43603 7.42115,-7.77176 10.43939,-11.96733 11.03942,-15.34559 0.82389,-4.63867 0.79869,-4.66635 -10.88028,-11.94721 C 81.488891,283.53408 61.763831,268.02488 42.108285,248.6202 21.740583,228.51245 10.559488,212.53969 4.4492646,194.82239 c -3.417819,-9.91036 -3.55920408,-11.134 -1.972129,-17.06789 2.790721,-10.43419 6.159731,-14.59556 15.2978004,-18.89569 10.695815,-5.03316 22.377046,-6.06944 48.228885,-4.27851 18.94248,1.31227 26.69251,2.14167 54.701749,5.85419 l 12,1.59056 0.66666,38.6309 c 0.64174,37.18593 0.78006,38.82154 3.69807,43.72738 6.226,10.46729 8.68027,12.70537 19.21159,17.51937 10.92732,4.995 50.0289,17.99439 61.75701,20.5312 39.43088,8.52899 51.23564,9.8735 86,9.79494 21.17965,-0.0479 33.33214,-0.6791 41.33334,-2.14698 6.23333,-1.14356 13.25511,-2.09025 15.60393,-2.10376 2.34883,-0.0135 5.64883,-0.58134 7.33334,-1.26186 1.6845,-0.68051 7.86273,-2.24534 13.7294,-3.47742 5.86666,-1.23206 13.36666,-3.00166 16.66666,-3.93245 3.30001,-0.93077 8.70001,-2.41821 12.00001,-3.3054 10.25964,-2.75828 36.34554,-12.15717 43.23092,-15.57633 6.81485,-3.38415 8.05544,-4.55527 13.41228,-12.6614 6.15397,-9.31239 7.3568,-18.04487 7.3568,-53.41006 v -32.54876 l 11.66666,-1.50259 c 28.87522,-3.71896 35.6781,-4.42812 55.05739,-5.73945 24.28494,-1.64327 34.9536,-0.79509 46.21135,3.67389 7.01647,2.78534 8.92171,4.30003 12.58046,10.00168 7.60852,11.85687 5.6445,24.00814 -7.38906,45.71558 -8.47649,14.11764 -34.59872,42.2134 -52.1268,56.06499 -3.66667,2.89758 -6.96667,5.59033 -7.33333,5.98385 -1.51702,1.62817 -25.30575,18.61783 -26.06847,18.61783 -0.45591,0 -3.47701,1.9017 -6.71356,4.22602 -5.49904,3.94911 -5.88464,4.62987 -5.88464,10.38906 0,5.56927 0.58937,6.73572 6.11752,12.10731 21.26271,20.66057 40.26701,55.46141 44.48621,81.4635 1.83202,11.29038 1.7707,32.62314 -0.10386,36.12575 -1.20082,2.24374 -17.97652,24.88706 -45.20902,61.0217 -1.38167,1.83333 -2.68735,3.93333 -2.90149,4.66667 -0.24666,0.84462 9.96152,1.57769 27.85081,2 26.0199,0.61425 28.53578,0.88669 32,3.4652 4.2674,3.17633 5.4022,8.29358 3.08158,13.89608 -1.53575,3.70761 -86.44373,87.82779 -93.16098,92.2966 -9.88923,6.57904 -22.93435,-3.49272 -17.55137,-13.55091 0.70184,-1.3114 16.05337,-17.02196 34.11449,-34.91235 18.06112,-17.89037 33.41558,-33.5921 34.12099,-34.89272 1.20888,-2.2289 -0.20963,-2.35778 -24.69066,-2.24329 -28.26874,0.13213 -31.92429,-0.68864 -33.64777,-7.55556 -1.31303,-5.23149 0.33073,-8.81781 10.0642,-21.95782 9.01636,-12.17192 32.02619,-43.247 46.57219,-62.89636 l 7.14285,-9.64888 -0.81676,-10.66666 c -0.44922,-5.86667 -1.76486,-13.96667 -2.92366,-18.00001 -1.15879,-4.03333 -2.56526,-9.16324 -3.12548,-11.3998 -1.35231,-5.39874 -12.63608,-26.89506 -16.74806,-31.90616 -4.49655,-5.47973 -5.80659,-3.57341 -7.38016,10.73935 -1.28955,11.72933 -1.84443,14.77157 -6.06145,33.23328 -2.09483,9.17092 -6.16784,22.85856 -11.50599,38.66667 -3.29967,9.77141 -18.11799,39.90005 -23.67131,48.12851 -2.22906,3.30285 -4.05284,6.43609 -4.05284,6.96277 0,0.52668 -2.25,3.74596 -5,7.15395 -2.75,3.40799 -7.98966,9.99699 -11.6437,14.64223 -12.17792,15.4813 -38.04521,40.00745 -55.68047,52.79361 -9.34496,6.77541 -17.24744,12.31893 -17.56106,12.31893 -0.31362,0 -5.26774,2.89496 -11.00916,6.43324 -11.67204,7.19318 -37.9296,20.23343 -40.74156,20.23343 -1.65671,0 -26.91805,-11.66459 -31.69737,-14.63647 -1.1,-0.684 -5.3,-3.13688 -9.33334,-5.45084 -13.70501,-7.86272 -48.02697,-33.4773 -57.22342,-42.70602 -12.79006,-12.83492 -22.98225,-24.06184 -29.54093,-32.54 -3.97113,-5.13334 -8.16625,-10.38114 -9.3225,-11.66179 -1.15624,-1.28064 -3.44091,-4.88064 -5.07703,-8 -1.63612,-3.11935 -4.15912,-7.67119 -5.60665,-10.1152 -3.68346,-6.21911 -15.39796,-29.40602 -17.2902,-34.22302 -3.62786,-9.23537 -12.22504,-33.68328 -13.36282,-38 -4.27325,-16.21277 -9.24312,-44.64748 -9.24312,-52.88383 0,-3.06622 -0.62177,-4.4495 -2,-4.4495 -1.1,0 -2,0.51749 -2,1.15 0,0.63249 -1.80948,3.42692 -4.02106,6.20984 -5.54909,6.98261 -11.613809,19.20582 -16.153569,32.55694 -3.19397,9.39322 -3.82537,13.4236 -3.82537,24.41834 v 13.16823 l 17.554809,23.58166 c 9.65515,12.96991 23.41065,31.39983 30.56775,40.95536 7.15711,9.55555 13.40972,18.9547 13.8947,20.88701 1.0396,4.14208 -2.44847,12.4285 -5.78691,13.74768 -1.22669,0.48472 -14.23035,0.83352 -28.89701,0.77512 l -26.666669,-0.10627 35.057129,34.72481 c 19.28142,19.09864 35.6467,36.27551 36.36728,38.17079 2.79039,7.33927 -2.95182,15.09376 -11.17693,15.09376 -4.88651,0 -6.30108,-0.9863 -18.64464,-13 z M 258.47822,405.32407 c 16.75252,-8.71562 28.37907,-22.73402 32.96443,-39.74596 0.84629,-3.13982 1.17211,-5.93535 0.724,-6.2123 -1.62696,-1.00552 -10.44643,-2.20493 -25.46108,-3.46262 -20.86217,-1.74752 -37.34608,-4.74363 -54.66667,-9.93622 -4.03333,-1.20916 -9.13333,-2.72146 -11.33333,-3.36068 -2.2,-0.63921 -9.58755,-3.12224 -16.41676,-5.51785 -14.36752,-5.03996 -14.29116,-5.07659 -15.61196,7.48911 -2.85815,27.19158 15.68492,55.01836 42.69539,64.07111 7.90478,2.64934 12.1313,3.10996 24.78434,2.70102 10.51752,-0.33992 12.33719,-0.83113 22.32164,-6.02561 z m 146.89402,0.99805 c 26.55375,-12.89395 39.70214,-36.76703 35.702,-64.82293 -1.6164,-11.33708 -0.29532,-11.02463 -18.36866,-4.34431 -6.23334,2.30399 -13.43334,4.73435 -16,5.4008 -2.56667,0.66645 -7.96667,2.20129 -12.00001,3.41076 -15.42634,4.62584 -34.79236,8.43903 -50.66666,9.97629 -20.46699,1.98203 -25.48647,2.85842 -26.141,4.56411 -0.79816,2.07996 5.91617,18.47175 10.54536,25.74453 6.41721,10.08192 24.05129,21.80242 36.92897,24.54486 2.56667,0.5466 10.36667,0.85608 17.33333,0.68775 11.52791,-0.27855 13.5657,-0.74262 22.66667,-5.16186 z M 270.70557,266.4552 c -4.03333,-0.64111 -11.53333,-1.75616 -16.66667,-2.4779 -8.49565,-1.19446 -16.84737,-2.79434 -34.18406,-6.54837 -8.65412,-1.87395 -44.55042,-13.87 -51.97633,-17.36979 -11.16897,-5.26388 -10.68753,-0.56829 -10.1279,-98.78032 0.52908,-92.848807 0.39044,-90.977651 7.88369,-106.40097 3.83528,-7.894146 17.10607,-21.170502 25.7762,-25.7870395 3.64563,-1.94116 11.07639,-4.596098 16.51283,-5.899865 19.28708,-4.625432 36.54409,0.03503 61.07421,16.4938295 18.89782,12.679731 27.46228,15.524487 40.52263,13.459924 8.73155,-1.380272 13.50024,-3.632484 28.36691,-13.39742 6.51649,-4.28026 16.34161,-9.9435455 21.83359,-12.5850815 9.17074,-4.410945 11.03244,-4.819348 22.81849,-5.005731 24.81832,-0.392472 42.49644,8.6363265 55.15235,28.1681055 6.87803,10.614817 8.39189,14.849357 10.26947,28.725435 1.95568,14.453278 1.91498,164.927973 -0.0464,171.415493 -0.8017,2.65175 -2.76908,5.79935 -4.37199,6.99466 -3.11119,2.32008 -42.37947,15.85714 -53.50374,18.44449 -3.66666,0.85283 -8.76666,2.10507 -11.33333,2.78277 -4.80993,1.27003 -17.61647,3.776 -24.66667,4.82675 -2.2,0.32788 -9.35573,1.46087 -15.90162,2.51776 -13.14916,2.12303 -55.0823,2.38624 -67.43171,0.42327 z"
     id="logopath" />
</svg>
