<?xml version="1.0" encoding="UTF-8" standalone="no"?>
<!-- Created with Inkscape (http://www.inkscape.org/) -->

<svg
   version="1.1"
   id="svg2"
   width="655.82672"
   height="595.67047"
   viewBox="0 0 655.82672 595.67047"
   xmlns:xlink="http://www.w3.org/1999/xlink"
   xmlns="http://www.w3.org/2000/svg"
   xmlns:svg="http://www.w3.org/2000/svg">
  <defs
     id="defs6">
    <linearGradient
       id="linearGradient876">
      <stop
         style="stop-color:#c12755;stop-opacity:1;"
         offset="0"
         id="stop872" />
      <stop
         style="stop-color:#6e86a4;stop-opacity:1;"
         offset="0.75"
         id="stop874" />
    </linearGradient>
    <linearGradient
       xlink:href="#linearGradient876"
       id="linearGradient878"
       x1="13.47528"
       y1="42.220425"
       x2="665.60223"
       y2="637.91418"
       gradientUnits="userSpaceOnUse" />
  </defs>
  <g
     id="g8"
     transform="translate(-12.03266,-40.000001)">
    <path
       style="fill:url(#linearGradient878);fill-opacity:1;stroke-width:1.33333"
       d="m 245.45249,625.66669 c -1.63953,-6.41667 -3.86987,-14.96667 -4.95628,-19 -1.08642,-4.03334 -2.4975,-9.43334 -3.13575,-12 -0.63825,-2.56667 -2.15428,-8.26667 -3.36895,-12.66667 -1.21468,-4.4 -2.52597,-9.95556 -2.91398,-12.34569 -1.19336,-7.35086 2.13076,-8.14019 -47.74419,11.33709 -10.26667,4.00936 -28.56667,11.13715 -40.66667,15.83952 -12.1,4.70237 -22.91969,9.06281 -24.04376,9.68988 -3.53835,1.97387 -10.33637,3.02151 -11.14251,1.71716 -0.8627,-1.39588 -4.35823,-42.1576 -8.273183,-96.47435 -1.379707,-19.14229 5.860453,-18.71001 -54.260678,-3.23965 -15.979405,4.11182 -29.929405,7.47604 -31.000001,7.47604 -2.564793,0 -2.553008,-7.90574 0.04281,-28.71735 1.094142,-8.77212 1.994142,-19.81819 2,-24.54679 0.0059,-4.72861 0.592247,-13.42861 1.303086,-19.33333 1.433634,-11.90879 3.880698,-40.24432 5.417884,-62.73587 2.202393,-32.22463 4.098171,-55.14616 5.328812,-64.42982 0.711812,-5.36973 1.313215,-13.76973 1.336449,-18.66666 0.05116,-10.78207 3.13992,-34.77362 4.935042,-38.3323 1.263103,-2.504 3.297605,-7.04676 7.421537,-16.57123 1.111322,-2.56666 4.176219,-9.36048 6.810882,-15.09737 2.634659,-5.73689 4.790292,-10.67049 4.790292,-10.96355 0,-0.29306 1.5,-3.84925 3.333334,-7.90262 1.833333,-4.05339 4.833333,-10.68619 6.666666,-14.73958 1.833334,-4.05337 3.333334,-7.60956 3.333334,-7.90262 0,-0.29306 2.029397,-4.92666 4.509772,-10.29688 2.480374,-5.37023 6.138406,-13.66404 8.128958,-18.43071 1.990553,-4.76667 5.361156,-12.45854 7.490229,-17.09303 2.129072,-4.63449 3.871042,-8.64068 3.871042,-8.90263 0,-0.26194 1.9852,-4.87008 4.411556,-10.2403 2.426356,-5.37023 4.976357,-11.10323 5.666667,-12.74002 0.85889,-2.03649 7.98982,-6.40085 22.58845,-13.824853 11.73333,-5.966881 38.43333,-19.564356 59.33333,-30.21661 20.9,-10.652254 40.1,-20.436568 42.66667,-21.742918 7.18711,-3.658003 7.31148,-0.85075 2.01281,45.427024 -1.21748,10.633334 -2.6795,24.733337 -3.24894,31.333337 -1.29706,15.03337 -3.77071,37.21396 -5.4674,49.02475 -0.71306,4.96361 -1.29647,11.90341 -1.29647,15.42178 0,3.51838 -0.59967,9.65724 -1.3326,13.64192 -0.73293,3.98468 -1.96997,14.14488 -2.74896,22.57822 -0.779,8.43333 -1.74509,18.6955 -2.14688,22.80484 l -0.73051,7.47151 5.14615,0.78317 c 2.83037,0.43076 13.54613,2.01237 23.8128,3.51471 27.89514,4.08194 45.7335,6.71752 54.66667,8.07685 4.4,0.66953 14.6,2.16953 22.66667,3.33333 8.06666,1.1638 18.26666,2.6638 22.66666,3.33334 4.40001,0.66953 14.60001,2.16953 22.66667,3.33333 14.82964,2.13951 18.37826,2.66661 46,6.8328 18.59224,2.80425 20.60291,4.7288 40.66667,38.92487 0.73334,1.24986 4.67915,7.36921 8.76848,13.59853 4.08934,6.22933 9.72122,15.07054 12.5153,19.64714 7.28458,11.9319 5.91229,11.40696 42.71622,16.34006 6.6,0.88466 15.3,2.14524 19.33334,2.80131 4.03333,0.65607 11.83333,1.78957 17.33333,2.51892 5.5,0.72935 16.3,2.25196 24,3.38357 7.7,1.13163 18.2,2.63974 23.33334,3.35135 5.13333,0.71161 15.63333,2.19024 23.33333,3.28583 7.7,1.09558 18.5,2.60736 24,3.3595 24.11782,3.29815 23.29676,3.07071 23.7954,6.59172 0.25415,1.79454 -0.27217,5.68916 -1.16957,8.65472 -0.89741,2.96556 -2.09267,8.69194 -2.65613,12.72527 -3.93779,28.18724 -0.52162,23.75431 -37.1875,48.25548 -16.56355,11.06823 -32.81553,22.04019 -36.11553,24.38212 -4.49747,3.19175 -9.00507,4.83078 -18,6.54504 -6.6,1.25783 -14.1,2.80602 -16.66667,3.4404 -2.56667,0.63439 -7.36667,1.55402 -10.66667,2.04363 -3.3,0.48961 -8.1,1.40361 -10.66667,2.03112 -2.56666,0.62751 -9.76666,2.11052 -16,3.29559 -6.23333,1.18505 -14.03333,2.73721 -17.33333,3.44921 -7.70044,1.66145 -32.98567,6.72437 -37.33333,7.47535 -1.83334,0.31668 -7.23334,1.38762 -12,2.37988 -4.76667,0.99226 -12.26667,2.50825 -16.66667,3.36885 -4.4,0.8606 -11.9,2.36653 -16.66667,3.34652 -4.76667,0.97999 -13.76667,2.75217 -20,3.9382 -6.23333,1.18603 -13.73333,2.70136 -16.66667,3.36739 -2.93333,0.66604 -7.56712,1.56593 -10.29729,1.99976 -4.82187,0.7662 -17.31869,11.01124 -61.70271,50.58461 -5.13333,4.57695 -11.73333,10.35512 -14.66667,12.84039 -2.93333,2.48527 -10.43333,9.04501 -16.66666,14.57724 -33.44139,29.67996 -29.5367,28.07182 -33.21419,13.67923 z M 337.4366,396.33335 c 4.70672,-4.21667 9.68687,-8.68383 11.06697,-9.92704 2.68366,-2.41743 1.84874,-4.62806 -9.16825,-24.27478 -3.42112,-6.10093 -2.9567,-5.95677 -28.00198,-8.69161 -7.33333,-0.80076 -18.13333,-2.05893 -24,-2.79593 -59.99563,-7.53688 -57.23223,-7.94842 -43.66667,6.50284 4.95001,5.27318 15.90001,16.97557 24.33334,26.0053 l 15.33333,16.41768 12.66667,1.02272 c 6.96667,0.5625 15.36667,1.48419 18.66667,2.04822 12.64514,2.16124 13.61778,1.89182 22.76992,-6.3074 z m 22.56341,-141.23411 c -6.23333,-1.0325 -15.23333,-2.43162 -20,-3.10914 -8.30805,-1.18089 -28.29568,-4.04833 -46.66667,-6.69482 -15.21773,-2.19226 -36.41009,-5.34863 -44.8204,-6.67553 -4.48454,-0.70753 -10.05337,-1.28641 -12.37517,-1.28641 -5.27464,0 -6.49495,-2.74247 -3.74055,-8.40632 1.13952,-2.34319 2.97385,-6.36153 4.07628,-8.92964 1.10244,-2.56811 3.28936,-7.66693 4.85984,-11.33071 4.36264,-10.17761 6.04316,-13.99809 9.83986,-22.36978 1.92141,-4.23671 3.49348,-7.9429 3.49348,-8.23596 0,-0.29306 2.1665,-5.22319 4.81446,-10.95584 2.64796,-5.73264 5.88304,-13.12646 7.18907,-16.43071 1.30604,-3.30424 4.1618,-9.90771 6.34613,-14.67438 2.18435,-4.76666 5.93008,-13.46666 8.32384,-19.33333 5.91091,-14.4865 3.22971,-12.29239 36.65983,-30 7.33333,-3.884397 16.33333,-8.699397 20,-10.700001 3.66667,-2.000604 11.77675,-6.324175 18.02242,-9.607936 6.24565,-3.28376 15.24565,-8.078184 20,-10.654276 23.59154,-12.782842 29.14978,-15.704456 29.87705,-15.704456 0.86864,0 0.005,10.192293 -2.09036,24.666668 -0.74308,5.133333 -1.86041,14.133334 -2.48296,20.000001 -0.62255,5.866666 -2.12161,18.16667 -3.33125,27.33333 -1.20966,9.16667 -2.6946,21.16667 -3.29991,26.66667 -0.60529,5.5 -1.74916,14.8 -2.54192,20.66667 -1.55156,11.48197 -2.88371,22.14328 -6.16427,49.33333 -1.15022,9.53334 -2.66825,21.00251 -3.37338,25.48707 -0.70515,4.48455 -1.29027,10.18455 -1.30028,12.66667 -0.0464,11.51176 -0.56995,11.71508 -21.31514,8.27883 z"
       id="path293" />
  </g>
</svg>
