<?xml version="1.0" encoding="UTF-8" standalone="no"?>
<!-- Created with Inkscape (http://www.inkscape.org/) -->

<svg
   version="1.1"
   id="svg2"
   width="653.57587"
   height="653.3739"
   viewBox="0 0 653.57587 653.3739"
   sodipodi:docname="u_icon.png"
   inkscape:export-filename="u_icon.svg"
   inkscape:export-xdpi="96"
   inkscape:export-ydpi="96"
   xmlns:inkscape="http://www.inkscape.org/namespaces/inkscape"
   xmlns:sodipodi="http://sodipodi.sourceforge.net/DTD/sodipodi-0.dtd"
   xmlns:xlink="http://www.w3.org/1999/xlink"
   xmlns="http://www.w3.org/2000/svg"
   xmlns:svg="http://www.w3.org/2000/svg">
  <defs
     id="defs6">
    <linearGradient
       inkscape:collect="always"
       id="linearGradient886">
      <stop
         style="stop-color:#7eb865;stop-opacity:1;"
         offset="0.1"
         id="stop882" />
      <stop
         style="stop-color:#6e86a4;stop-opacity:1;"
         offset="0.64975572"
         id="stop884" />
    </linearGradient>
    <linearGradient
       inkscape:collect="always"
       xlink:href="#linearGradient886"
       id="linearGradient888"
       x1="16.335485"
       y1="15.321967"
       x2="664.57697"
       y2="658.91064"
       gradientUnits="userSpaceOnUse" />
  </defs>
  <sodipodi:namedview
     id="namedview4"
     pagecolor="#ffffff"
     bordercolor="#000000"
     borderopacity="0.25"
     inkscape:showpageshadow="2"
     inkscape:pageopacity="0.0"
     inkscape:pagecheckerboard="0"
     inkscape:deskcolor="#d1d1d1"
     showgrid="false" />
  <g
     inkscape:groupmode="layer"
     inkscape:label="Image"
     id="g8"
     transform="translate(-15.143972,-12.866824)">
    <path
       style="fill:url(#linearGradient888);fill-opacity:1;stroke-width:1.33333"
       d="m 295.33334,664.77089 c -19.15397,-2.42695 -33.13748,-4.96996 -34.6,-6.29228 -0.69666,-0.62989 -2.47661,-1.14525 -3.95542,-1.14525 -1.47882,0 -5.10882,-0.83206 -8.06667,-1.84902 -2.95785,-1.01696 -10.77791,-3.54012 -17.37791,-5.60704 -6.6,-2.06692 -12.57,-4.23486 -13.26667,-4.81766 -0.69666,-0.58279 -2.29196,-1.05962 -3.5451,-1.05962 -3.6367,0 -35.80515,-17.05143 -53.31636,-28.26123 -12.23914,-7.83486 -28.16063,-20.32457 -40.4486,-31.73009 C 109.21265,573.29374 106.65076,570.66249 100,562.69009 96.700003,558.7343 91.864392,553.06075 89.254203,550.08222 84.15302,544.26115 66.666669,520.52923 66.666669,519.42712 c 0,-0.36668 -3.1561,-5.93777 -7.013556,-12.38022 -3.857456,-6.44246 -7.710601,-13.21355 -8.562543,-15.04688 -0.851942,-1.83334 -3.995842,-8.57131 -6.986443,-14.97328 -2.990603,-6.40198 -5.437459,-12.26012 -5.437459,-13.0181 0,-0.75798 -0.561192,-2.42 -1.247095,-3.69338 C 32.82389,451.78334 23.642339,417.432 20.050966,395.33335 16.597063,374.08059 16.05857,369.22133 15.322725,352.66668 c -1.033786,-23.25752 2.576936,-71.44666 6.693578,-89.33334 1.181443,-5.13333 2.635502,-11.73333 3.231241,-14.66666 0.595738,-2.93334 2.058753,-8.78334 3.251142,-13.00001 1.19239,-4.21666 3.023303,-10.82441 4.068698,-14.68388 9.573459,-35.34402 40.782007,-91.64504 64.964402,-117.19742 2.457519,-2.59674 7.378404,-7.81286 10.935304,-11.591371 11.69598,-12.424708 36.21957,-31.983833 50.21316,-40.048191 11.62548,-6.699646 28.8889,-15.222215 37.98642,-18.753058 5.86667,-2.276913 11.86667,-4.637697 13.33334,-5.246188 1.46666,-0.60849 5.96666,-2.082796 10,-3.276233 19.85058,-5.873662 20.84257,-6.103603 44.66667,-10.353617 11.89084,-2.121222 64.19493,-2.225832 73.33333,-0.146669 3.66667,0.834238 11.46667,2.515568 17.33334,3.73629 17.28682,3.597001 34.84288,9.218539 48.66666,15.583319 17.14664,7.894696 19.39206,8.980696 23.39514,11.315163 12.08087,7.045175 29.94572,18.684543 31.27153,20.374143 0.36667,0.467275 4.56342,3.667596 9.32611,7.111827 10.60483,7.669072 28.19112,24.809194 38.40249,37.428215 9.66054,11.93832 12.14848,14.69265 12.63148,13.98397 0.21352,-0.3133 -0.11653,-19.98327 -0.73338,-43.711055 -0.6169,-23.727782 -0.8068,-43.456248 -0.42202,-43.841036 2.45366,-2.453661 57.38099,46.209329 70.33763,62.315791 2.65466,3.3 6.12999,7.5 7.72298,9.33333 12.70614,14.62326 24.7014,30.9397 32.34721,44.00001 11.37856,19.43646 25.13224,49.59377 27.36386,60 0.39316,1.83333 1.16981,3.93333 1.72588,4.66666 0.55608,0.73334 1.91753,4.93334 3.02546,9.33334 13.57492,53.91087 10.64068,102.42685 -9.47518,156.66667 -4.9274,13.28611 -12.33642,29.55463 -14.82582,32.55417 -6.02161,7.2556 -39.87855,12.05835 -61.42669,8.71363 -4.76667,-0.73988 -11.96667,-1.65764 -16,-2.03947 -7.25854,-0.68716 -9.09391,-1.065 -24.66667,-5.078 -4.4,-1.13385 -11.9,-2.97964 -16.66667,-4.10174 -4.76667,-1.12211 -13.76667,-3.89383 -20,-6.15939 -6.23333,-2.26556 -15.64748,-5.54968 -20.92032,-7.29807 -21.94265,-7.27581 -64.10696,-25.84766 -106.2914,-46.81754 -6.23964,-3.10174 -9.50843,-4.09908 -10.13132,-3.09122 -2.0795,3.3647 -4.24474,24.50926 -3.35784,32.79092 0.92676,8.65392 1.61636,11.50574 5.02081,20.76344 2.85307,7.75831 16.28508,21.78787 32.36672,33.80662 27.39033,20.4704 56.58618,51.91156 56.63418,60.98965 0.0324,6.13676 -19.54373,5.10322 -37.32083,-1.97038 -1.83334,-0.7295 -10.53334,-3.72448 -19.33334,-6.65554 -15.72904,-5.23893 -18.1971,-6.23525 -37.76404,-15.24465 -5.37022,-2.47267 -10.06046,-4.49576 -10.42277,-4.49576 -1.89492,0 -42.3505,-21.1356 -52.90091,-27.63755 -47.37448,-29.19563 -80.50448,-64.01173 -83.44572,-87.69259 l -0.82842,-6.66986 -11.98574,0.10266 c -29.0525,0.24887 -39.37004,10.6393 -34.0663,34.3069 0.68904,3.07473 2.26074,10.39042 3.49268,16.25709 4.36356,20.7798 18.29952,56.00108 24.04436,60.76887 1.03227,0.85671 1.87686,2.03055 1.87686,2.60853 0,9.28895 59.81012,73.28927 68.49091,73.28927 0.43485,0 3.95229,2.02055 7.81653,4.49012 39.71229,25.37938 104.81675,42.53546 144.35923,38.04099 5.13333,-0.58345 12.79239,-1.09165 17.02013,-1.12931 4.22774,-0.0376 11.12774,-0.92029 15.33334,-1.96142 4.20559,-1.04112 10.94653,-2.58982 14.97987,-3.44154 7.11501,-1.50248 10.48026,-2.415 27.33333,-7.41165 11.60837,-3.44168 33.45133,-12.80771 44.59087,-19.12008 5.30633,-3.00691 10.08723,-5.46711 10.62419,-5.46711 4.84449,0 44.49504,-29.97745 58.25394,-44.04239 14.38159,-14.70146 12.76147,-9.24429 -6.54389,22.04239 -11.07259,17.94447 -18.39537,27.94716 -29.26387,39.97348 -3.48632,3.85772 -7.55978,8.56632 -9.05214,10.46355 -26.33127,33.47477 -93.03054,74.61468 -141.27577,87.13844 -7.39039,1.91844 -9.53869,2.46796 -25.33333,6.48016 -19.91202,5.05811 -69.25877,7.18347 -94.00001,4.04858 z M 563.97638,272.32853 c 4.75872,-0.79733 17.35697,-8.90796 17.35697,-11.17425 0,-0.69424 1.18695,-2.88795 2.63767,-4.87492 18.37384,-25.16569 -18.65727,-60.19189 -44.83257,-42.4053 -21.87371,14.86356 -15.19723,57.99166 9.00138,58.14636 1.75644,0.0107 4.09352,0.60494 5.19352,1.31934 1.1,0.7144 2.9,0.95416 4,0.53281 1.1,-0.42136 4.08936,-1.11617 6.64303,-1.54404 z"
       id="path303" />
  </g>
</svg>
