<?xml version="1.0" encoding="UTF-8" standalone="no"?>
<!-- Created with Inkscape (http://www.inkscape.org/) -->

<svg
   version="1.1"
   id="svg2"
   width="666.21509"
   height="620.8125"
   viewBox="0 0 666.21509 620.8125"
   xmlns:xlink="http://www.w3.org/1999/xlink"
   xmlns="http://www.w3.org/2000/svg"
   xmlns:svg="http://www.w3.org/2000/svg">
  <defs
     id="defs6">
    <linearGradient
       id="linearGradient876">
      <stop
         style="stop-color:#c833dc;stop-opacity:1;"
         offset="0.20317043"
         id="stop874" />
      <stop
         style="stop-color:#6e86a4;stop-opacity:1;"
         offset="0.60295671"
         id="stop872" />
    </linearGradient>
    <linearGradient
       xlink:href="#linearGradient876"
       id="linearGradient878"
       x1="7.4969497"
       y1="36.032787"
       x2="671.58832"
       y2="653.43896"
       gradientUnits="userSpaceOnUse" />
  </defs>
  <g
     id="g8"
     transform="translate(-7.1182424,-32.308685)">
    <path
       style="display:inline;fill:url(#linearGradient878);fill-opacity:1;stroke-width:1.33333"
       d="m 222.9421,648.75049 c -22.77595,-12.27467 -40.67704,-32.80626 -50.64211,-58.0838 -0.72274,-1.83334 -2.26721,-5.73334 -3.43213,-8.66667 -2.73624,-6.88995 -6.20119,-24.3662 -6.20119,-31.27712 0,-4.27577 -0.48977,-5.38955 -2.36998,-5.38955 -1.30351,0 -3.55351,-0.76997 -5,-1.71105 -1.44651,-0.94108 -5.03002,-2.52824 -7.96335,-3.52703 C 144.4,539.09649 134.8,534.79051 126,530.52643 111.50806,523.50431 104.51557,519.41704 86.513103,507.44551 76.476913,500.7715 59.702983,486.01727 50.666668,475.91524 29.394618,452.13444 23.141198,440.3737 12.073463,403.33335 6.618733,385.07803 5.6422723,365.81227 9.2689618,348.00001 11.425619,337.40773 14.700685,324.1207 15.964578,320.83574 c 0.600079,-1.55965 1.855629,-5.53573 2.790111,-8.83573 4.668241,-16.48527 21.490559,-44.18929 38.861809,-64 8.78632,-10.02019 36.04038,-37.39207 41.716839,-41.89718 2.933333,-2.32802 9.533333,-7.5752 14.666663,-11.66037 16.05484,-12.77664 45.50594,-29.78951 68.66667,-39.66629 4.03334,-1.72 10.33334,-4.47551 14,-6.12336 3.66667,-1.64786 8.76667,-3.65762 11.33334,-4.46614 2.56666,-0.80852 9.16666,-2.88652 14.66666,-4.61777 5.5,-1.73126 13,-3.80287 16.66667,-4.60359 26.36484,-5.75748 23.19942,2.71669 25.51219,-68.298641 0.91363,-28.053644 1.97247,-32.651219 7.86003,-34.1289 5.66694,-1.422312 29.46877,4.00431 43.96112,10.022772 7.61509,3.162439 11.18644,4.535349 16.47458,6.33321 3.19435,1.086016 9.65493,4.329201 14.35682,7.207079 4.70189,2.877879 8.90452,5.232505 9.33916,5.232505 0.43464,0 5.07408,3.102054 10.30985,6.893453 20.0532,14.521197 34.86602,31.984822 41.39432,48.802042 l 2.96495,7.63784 8.58016,-0.15071 c 4.71909,-0.0829 24.18016,-0.84149 43.24683,-1.68578 49.87904,-2.20867 125.4836,0.36421 140,4.76431 1.46667,0.44457 6.26667,1.25574 10.66667,1.80261 35.80892,4.45065 59.33334,22.01888 59.33334,44.31064 0,5.28972 -27.77696,75.66176 -36.74578,93.09427 -6.68044,12.98463 -17.23965,8.32791 -31.47767,-13.88196 -0.52282,-0.81555 -4.00576,1.45904 -8.44078,5.5124 -10.78652,9.85828 -20.18951,8.68315 -24.66268,-3.0822 -2.00684,-5.2784 -4.72335,-5.41553 -9.14947,-0.46184 -5.92717,6.63365 -14.27201,6.39228 -23.92268,-0.69195 -4.90278,-3.59897 -7.48731,-4.74688 -8.63272,-3.83418 -0.8992,0.71649 -3.4349,1.62088 -5.6349,2.00974 -7.12084,1.25868 -17.84337,4.64762 -23.7464,7.50522 -3.1692,1.5342 -6.89276,2.78944 -8.27456,2.78944 -1.54138,0 -2.02282,0.46538 -1.2457,1.20414 0.69666,0.6623 9.66666,1.50076 19.93333,1.86328 19.69433,0.69543 42.18476,2.87332 50,4.84184 2.56667,0.6465 9.0526,2.21439 14.41319,3.4842 47.41152,11.23086 30.03695,33.90476 -48.41319,63.17948 -10.26667,3.83114 -20.76667,7.77746 -23.33333,8.76959 -11.59472,4.48191 -30.70016,11.20562 -38,13.37322 -7.41067,2.2005 -22.54204,6.88245 -32.00001,9.90141 -2.2,0.70224 -12.1,3.3696 -22,5.92747 -9.9,2.55786 -21.6,5.65208 -26,6.87601 -10.6237,2.95517 -16.95268,4.34129 -27.125,5.94068 -4.65209,0.73145 -10.95209,1.87017 -14,2.53051 -7.59025,1.64444 -20.00645,3.6285 -38.20833,6.10557 -8.43334,1.14768 -18.63334,2.69432 -22.66667,3.43699 -4.03333,0.74266 -19.93333,1.644 -35.33333,2.00297 -40.15646,0.93604 -49.3779,3.09675 -67.49153,15.81417 -7.33189,5.14767 -14.50848,14.2869 -14.50848,18.47626 0,1.16316 -0.52197,2.43742 -1.15993,2.83172 -3.10447,1.91867 8.16173,27.44049 12.11317,27.44049 1.30906,0 2.3801,-0.52738 2.3801,-1.17197 0,-1.30371 23.35874,-25.31951 30.66666,-31.52928 17.01296,-14.45646 42.27349,-23.73596 64.66667,-23.75544 33.3686,-0.0291 39.55416,8.28524 21.2856,28.61089 -21.72024,24.16602 -43.48132,62.09179 -50.51577,88.04026 -1.06443,3.92638 -3.10838,11.33888 -4.54214,16.47221 -6.86797,24.58979 -6.71106,59.32214 0.39456,87.33334 1.20916,4.76667 2.46879,9.86667 2.79917,11.33333 0.6431,2.85499 -2.38347,6.95779 -7.13095,9.66667 -4.15191,2.36904 -5.29676,2.14164 -14.68171,-2.9162 z m 331.39125,-471.3419 c 9.79619,-8.1723 -3.83929,-20.63869 -17.60502,-16.0956 -7.46257,2.46287 -9.81442,13.69307 -3.62411,17.30519 4.04123,2.35812 17.89899,1.56853 21.22913,-1.20959 z M 402.65867,452.93023 c -3.12415,-3.24599 -3.35012,-3.79587 -12.69448,-30.89026 -7.02679,-20.37444 -7.00839,-20.20548 -2.29751,-21.1009 2.01667,-0.38332 7.26667,-1.68422 11.66667,-2.89088 4.4,-1.20667 10.1,-2.7177 12.66666,-3.35786 10.35891,-2.58361 29.16718,-7.90408 37.33334,-10.56082 4.76667,-1.55076 11.96667,-3.79836 16,-4.99464 4.03333,-1.1963 8.53333,-2.60788 10,-3.13688 15.20519,-5.48416 16.07977,-5.07498 11.90765,5.57101 -13.18849,33.65293 -72.61753,83.79262 -84.58233,71.36123 z"
       id="path293" />
  </g>
</svg>
