<?xml version="1.0" encoding="UTF-8" standalone="no"?>
<!-- Created with Inkscape (http://www.inkscape.org/) -->

<svg
   version="1.1"
   id="svg2"
   width="664.36395"
   height="615.31946"
   viewBox="0 0 664.36396 615.31946"
   xmlns:xlink="http://www.w3.org/1999/xlink"
   xmlns="http://www.w3.org/2000/svg"
   xmlns:svg="http://www.w3.org/2000/svg">
  <defs
     id="defs6">
    <linearGradient
       id="linearGradient904">
      <stop
         style="stop-color:#d1d335;stop-opacity:1;"
         offset="0.1"
         id="stop900" />
      <stop
         style="stop-color:#6e86a4;stop-opacity:1;"
         offset="0.69"
         id="stop902" />
    </linearGradient>
    <linearGradient
       xlink:href="#linearGradient904"
       id="linearGradient906"
       x1="14.049394"
       y1="40.347092"
       x2="672.84351"
       y2="642.82074"
       gradientUnits="userSpaceOnUse"
       spreadMethod="pad" />
  </defs>
  <g
     id="g8"
     transform="translate(-8.4602337,-33.632618)">
    <path
       style="display:inline;fill:url(#linearGradient906);fill-opacity:1;stroke-width:1.333;stroke-dasharray:none"
       d="m 360.70723,647.10253 c -17.83618,-12.12 -38.50555,-17.5222 -60.49115,-15.81011 l -11.11727,0.86575 0.62051,-8.41242 c 1.19568,-16.2103 11.90397,-45.00498 23.04438,-61.96658 3.22546,-4.91083 5.65274,-9.1405 5.39398,-9.39927 -0.57371,-0.57371 -12.463,1.92396 -16.15767,3.39436 -12.65225,5.03533 -22.37025,11.27827 -32.32108,20.76337 -13.39935,12.77223 -15.28276,12.70375 -20.6472,-0.75072 -5.10457,-12.80276 -6.33664,-19.51744 -4.94217,-26.93469 2.26878,-12.06784 -0.17575,-11.79752 -13.39385,1.48113 -18.68348,18.7691 -31.64382,49.06575 -31.95889,74.70851 -0.106,8.62595 -3.11472,8.84361 -10.59791,0.76668 -13.22048,-14.26944 -16.67545,-21.32197 -18.84864,-38.47519 -0.83617,-6.6 -1.93876,-13.79214 -2.4502,-15.98256 l -0.92986,-3.98256 -4.82666,7.98256 c -13.34296,22.06726 -15.95997,29.52651 -16.71736,47.64923 -0.60948,14.58392 -0.81945,14.80587 -9.65155,10.20231 -18.17075,-9.47112 -30.8407,-29.95412 -31.25928,-50.53564 -0.22555,-11.0906 -6.17445,-6.52023 -14.751676,11.33333 -7.179237,14.94364 -9.129853,23.89853 -7.874583,36.15068 l 0.870255,8.4942 -4.148911,-2.06976 c -12.713797,-6.34247 -23.758716,-22.46087 -27.575171,-40.24179 -1.298558,-6.05 -2.850178,-11 -3.448046,-11 -3.773788,0 -25.117849,27.46444 -30.272157,38.95266 -2.931546,6.534 -6.203206,10.21032 -7.7287896,8.68473 -0.2339576,-0.23395 0.1736964,-7.89808 0.9058977,-17.03137 0.7322009,-9.13331 1.9186699,-24.40602 2.6365969,-33.93935 1.376219,-18.27477 4.484215,-47.09415 9.346479,-86.66667 0.81094,-6.6 1.977788,-16.5 2.592995,-22 0.615207,-5.5 2.113764,-17.2 3.330128,-26 1.216364,-8.8 2.70105,-20.2 3.2993,-25.33334 0.59825,-5.13333 1.747583,-13.83333 2.554074,-19.33333 0.80649,-5.5 2.094915,-15.1 2.863164,-21.33333 0.768249,-6.23334 2.270177,-17.15622 3.337619,-24.27308 1.06744,-7.11687 1.9408,-14.84726 1.9408,-17.17865 0,-2.33138 0.548809,-6.4085 1.219576,-9.06025 0.670765,-2.65175 2.206684,-10.82136 3.413151,-18.15469 2.400122,-14.5888 5.059765,-27.01724 7.989205,-37.33334 1.041216,-3.66666 3.186967,-11.46666 4.768336,-17.33333 1.581368,-5.86667 3.75606,-12.76667 4.832649,-15.33334 1.076588,-2.56666 2.459501,-5.86666 3.073142,-7.33333 0.61364,-1.46667 3.689627,-8.96667 6.835525,-16.66667 5.414272,-13.25214 7.172781,-16.85169 18.095787,-37.04081 7.431967,-13.73659 9.041864,-16.41781 17.388084,-28.95919 11.43029,-17.17564 41.76507,-50.74221 54.30143,-60.086587 2.88761,-2.152377 7.38761,-5.790313 10,-8.084303 12.85575,-11.288903 52.74559,-33.251584 67.41645,-37.118372 3.66667,-0.96642 10.39774,-3.02169 14.95794,-4.567267 4.5602,-1.545577 10.26417,-2.81014 12.67548,-2.81014 2.41131,0 6.48023,-0.60403 9.04205,-1.34229 2.56183,-0.73826 16.17264,-2.339988 30.24627,-3.559394 26.55593,-2.300936 29.65483,-2.181783 63.74494,2.45103 5.86666,0.797274 13.96666,1.895974 18,2.441554 19.6806,2.662156 29.0704,4.13615 33.33333,5.232607 2.56667,0.660166 7.96667,1.938962 12,2.84177 27.15967,6.079328 49.49266,16.909159 73.87915,35.82586 28.97343,22.474792 47.17606,49.647462 34.28127,51.174662 -21.41118,2.53583 -28.16042,14.37553 -28.16042,49.39978 v 24.63071 l -4.03925,3.39881 c -6.83953,5.75509 -26.54767,6.35123 -53.29408,1.61204 -22.53255,-3.99253 -43.2221,-6.93889 -61.33334,-8.73437 -97.74371,-9.68996 -71.07843,63.96419 38.66667,106.80408 5.5,2.14697 11.2,4.46429 12.66667,5.1496 1.46667,0.68531 6.25071,2.41933 10.63121,3.8534 9.04787,2.96205 10.13382,4.45767 6.24347,8.59875 -14.52592,15.46213 -12.12931,43.54773 5.92619,69.44835 31.53866,45.24217 36.78602,55.33699 47.87758,92.1064 1.99091,6.6 3.89148,12.9 4.22351,14 1.85648,6.15065 5.75943,27.21359 9.26496,50 2.63459,17.12518 4.24423,87.33334 2.00227,87.33334 -0.7265,0 -4.19142,-5.44427 -7.69984,-12.09836 -8.16508,-15.48598 -27.48523,-35.31919 -28.21822,-28.96758 -0.22854,1.9804 0.31706,4.96958 1.21244,6.64263 1.73015,3.2328 5.31915,27.7344 4.30994,29.42331 -1.59664,2.67197 -4.72679,0.34573 -7.86323,-5.84372 -4.10275,-8.09639 -13.20453,-18.18952 -22.85335,-25.3425 -10.45745,-7.75244 -11.15722,-7.21145 -7.7236,5.97114 6.39716,24.56037 1.2385,39.64747 -7.63114,22.31815 -6.75575,-13.19923 -10.53972,-17.9195 -19.87299,-24.79026 -14.77244,-10.87484 -22.92084,-11.09197 -16.7187,-0.44551 12.80258,21.9766 12.63651,41.94358 -0.24572,29.54486 -17.71061,-17.04587 -45.30849,-29.7455 -64.64066,-29.7455 -2.0296,0 -0.62351,4.37316 3.5285,10.97411 11.51674,18.30954 12.47647,34.17136 1.62126,26.79507 z m 32.7056,-466.70479 c 18.78046,-5.28547 38.57096,-23.28299 39.08926,-35.54783 0.28047,-6.63715 -21.59186,-23.05687 -41.04294,-30.81123 -6.75236,-2.69189 -36.4929,-3.19972 -44.14839,-0.75385 -6.27751,2.00561 -13.26847,4.88965 -18.18314,7.50124 -1.94648,1.03433 -4.45605,1.8806 -5.57681,1.8806 -2.59592,0 -4.08447,4.51721 -3.73468,11.33333 1.59739,31.12649 40.56618,55.69367 73.5967,46.39774 z M 371.03341,162.65265 C 349.28632,157.75267 352.98356,128 375.33955,128 c 3.3782,0 8.30733,1.13325 11.04692,2.53978 19.31786,9.91796 6.36682,37.00671 -15.35306,32.11287 z m 76.34833,-18.73094 c 2.93374,-4.74689 -20.10162,-26.41583 -38.04141,-35.78483 -26.76945,-13.98027 -66.39786,-12.531969 -94.86392,3.467 -11.01175,6.189 -12.61096,8.13385 -9.81241,11.93319 1.97714,2.68422 3.76808,2.08672 16.66934,-5.56123 5.89402,-3.49402 25.21862,-9.97584 29.7415,-9.97584 1.88003,0 5.05612,-0.62272 7.05797,-1.38382 18.16088,-6.904753 56.72376,8.77934 79.03566,32.14496 6.22983,6.52402 8.6232,7.73336 10.21327,5.16057 z m 179.1934,250.29188 c 10.88482,-25.39324 6.89435,-57.27786 -9.68861,-77.41409 -16.35875,-19.86397 -27.15938,-27.28838 -58.4063,-40.14884 -15.46149,-6.36357 -17.84698,-7.06529 -39.05179,-11.48754 -21.51997,-4.48798 -25.02637,11.32254 -6.32142,28.50356 2.99392,2.75 5.72664,5 6.07269,5 0.34605,0 4.12219,2.06141 8.39141,4.58092 4.26923,2.5195 10.46223,5.57892 13.76223,6.79869 3.3,1.21979 7.8,3.02012 10,4.00077 2.2,0.98064 5.2,2.21548 6.66667,2.7441 7.9548,2.86702 -43.62118,4.48448 -55.33334,1.73528 -3.3,-0.77462 -8.7,-1.90026 -12,-2.50144 -20.83886,-3.79634 -61.6302,-20.0175 -86.66667,-34.46403 -29.40433,-16.96687 -51.0287,-35.92065 -53.79482,-47.15123 -3.79139,-15.3932 20.46421,-18.13512 80.46149,-9.09559 64.08856,9.65595 72.7392,9.76936 88.0671,1.1546 10.18669,-5.72524 14.50393,-25.36618 10.80036,-49.13541 -3.77534,-24.22984 16.395,-35.93506 42.25041,-24.51869 27.42448,12.10918 71.77507,60.2998 89.58534,97.34197 15.865,32.99634 15.19951,74.26683 -1.68521,104.51006 -2.2518,4.03333 -5.234,9.35848 -6.62711,11.83368 -10.616,18.86183 -32.50876,41.77209 -26.48243,27.71323 z M 605.37001,221.72786 c 9.82341,-6.77052 6.66496,-18.8542 -5.5676,-21.30071 -2.12184,-0.42437 -4.1808,-1.29408 -4.5755,-1.93269 -3.09153,-5.00223 -23.22689,4.46232 -23.22689,10.91772 0,11.41909 22.57983,19.75251 33.36999,12.31568 z"
       id="path898" />
  </g>
</svg>
