<?xml version="1.0" encoding="UTF-8" standalone="no"?>
<!-- Created with Inkscape (http://www.inkscape.org/) -->

<svg
   version="1.1"
   id="svg2"
   width="603.07483"
   height="617.20972"
   viewBox="0 0 603.07483 617.20972"
   xmlns="http://www.w3.org/2000/svg"
   xmlns:svg="http://www.w3.org/2000/svg">
  <defs
     id="defs6" />
  <g
     id="g8">
    <path
       style="display:inline;fill:#000000;stroke-width:1.33333"
       d="M 117.87229,593.34279 C 104.62724,580.21603 84.125108,560.09797 72.311998,548.63567 60.498876,537.17363 49.761134,525.80405 48.450345,523.37003 c -2.838367,-5.27046 -2.078515,-9.5738 2.577533,-14.59792 l 3.301846,-3.56272 h 27.984974 c 15.39174,0 28.244002,-0.44992 28.560592,-1 0.31657,-0.54996 -5.05702,-8.49994 -11.941332,-17.66669 -24.81313,-33.03952 -34.79785,-47.42394 -36.45296,-52.51571 -2.750342,-8.46165 0.22769,-35.62043 5.79157,-52.81757 6.15066,-19.01089 20.12354,-41.36879 36.063892,-57.7057 8.48184,-8.69287 10.1206,-11.0876 10.1206,-14.7901 0,-3.68113 -0.778,-4.83658 -4.66667,-6.93079 -2.56667,-1.38224 -4.66667,-2.97668 -4.66667,-3.54335 0,-0.56656 -0.64002,-1.03001 -1.42229,-1.03001 -0.78227,0 -3.38889,-1.50006 -5.792522,-3.33335 -2.40363,-1.83351 -4.79302,-3.3334 -5.30977,-3.3334 -0.51675,0 -7.94342,-5.23445 -16.50372,-11.63202 C 54.825019,263.01419 23.539269,231.87065 14.111941,217.20939 -0.29997099,194.79599 -3.264425,181.28539 3.35777,168.19684 6.494806,161.99649 7.980652,160.62715 15.674705,156.8444 l 8.74955,-4.30145 26.888767,0.17874 c 24.810606,0.1651 38.684846,1.35908 70.705198,6.08435 l 9.56117,1.41118 0.50266,38.16277 c 0.55001,41.75756 0.43538,41.11477 9.32265,52.27123 3.46015,4.34358 8.06523,6.99403 23.71903,13.65141 11.70262,4.97689 40.65208,13.77648 56,17.02174 4.03333,0.85283 9.13333,2.11518 11.33333,2.80529 4.05275,1.27108 15.01908,2.72607 38,5.04167 15.664,1.5782 46.21326,1.57737 61.33334,-9.7e-4 21.49245,-2.24494 32.67879,-3.78918 36.66667,-5.06222 2.2,-0.70231 7.6,-2.00468 12,-2.89391 19.77663,-3.99734 36.33687,-8.89056 59.30131,-17.52213 17.05172,-6.40891 22.33454,-10.52798 28.03202,-21.85495 3.28319,-6.52716 3.33972,-7.19097 3.75812,-44.12063 l 0.42479,-37.49382 9.57521,-1.41309 c 32.01662,-4.72615 45.90635,-5.92192 70.70285,-6.08707 l 26.87237,-0.17919 7.94209,4.00762 c 5.39511,2.72237 9.24346,5.85999 12.00001,9.78319 3.63358,5.17144 4.05245,6.78355 4.00578,15.41719 -0.0427,7.90085 -0.75637,11.06987 -3.9523,17.55011 -8.84685,17.93843 -18.41609,30.47875 -38.60519,50.59134 -17.43167,17.36552 -35.48007,31.76475 -55.05706,43.92504 l -12.33333,7.66079 0.0304,5.53222 c 0.0271,4.91824 1.02577,6.65486 9,15.64917 16.12148,18.18376 22.23808,26.78781 29.77427,41.88306 10.23338,20.49776 13.14904,32.78739 13.17561,55.53641 l 0.0197,16.86981 -8.33333,11.30849 c -16.90467,22.9401 -25.70137,34.70042 -27.03332,36.14082 -5.09348,5.50785 -13.90628,18.49682 -13.25966,19.54299 0.45412,0.73491 12.22539,1.26816 27.99194,1.26816 h 27.20825 l 4.71306,4.13816 c 2.59218,2.27588 4.71306,5.16325 4.71306,6.41616 0,4.0735 -5.1404,13.04672 -9.62261,16.79752 -2.40756,2.01478 -22.84355,21.88484 -45.41329,44.15568 l -41.03593,40.49245 h -6.51224 c -5.63506,0 -6.97718,-0.55255 -9.96409,-4.10237 -1.89852,-2.25641 -3.45185,-5.03535 -3.45185,-6.17582 0,-4.47041 6.4231,-11.71706 37.2877,-42.06818 17.6251,-17.33181 32.04563,-32.10789 32.04563,-32.83563 0,-0.81395 -9.70736,-1.48242 -25.22935,-1.7372 -24.35213,-0.3997 -25.34493,-0.52281 -28.55385,-3.54059 -5.11463,-4.80984 -5.48269,-8.7451 -1.50203,-16.0588 1.9078,-3.50525 4.79784,-7.82254 6.4223,-9.59398 1.62444,-1.77146 9.11777,-11.62072 16.65182,-21.88743 7.53406,-10.26669 19.04234,-25.86664 25.57397,-34.66661 l 11.87566,-16.00003 0.0475,-9.60167 c 0.026,-5.2809 -0.90483,-13.08091 -2.06867,-17.3333 -1.16384,-4.25245 -2.69094,-10.08884 -3.39356,-12.96987 -2.56644,-10.5233 -18.28524,-37.41145 -20.54796,-35.14873 -1.40759,1.40786 -3.21021,10.71005 -3.24393,16.74038 -0.0175,3.12773 -0.89207,9.12771 -1.9435,13.33333 -1.05142,4.20551 -2.89174,12.14652 -4.08958,17.64652 -5.91451,27.15696 -22.24554,66.32889 -37.00092,88.75118 -20.81035,31.62333 -45.93318,57.72513 -77.95093,80.98872 -6.75753,4.90961 -12.56001,8.92671 -12.89438,8.92671 -0.33438,0 -5.40639,2.97613 -11.27115,6.61355 -13.82495,8.57455 -37.95865,20.05312 -42.16143,20.05312 -4.35391,0 -38.96613,-17.6866 -52.95957,-27.06196 -6.10156,-4.08768 -15.29375,-10.79428 -20.42708,-14.90299 -5.13334,-4.10873 -11.43334,-9.03468 -14,-10.94668 -13.61826,-10.14424 -51.63179,-53.51095 -56.46949,-64.42166 -0.48773,-1.10004 -2.09717,-3.99961 -3.57653,-6.44372 -10.36241,-17.11939 -20.03789,-39.21006 -29.23844,-66.75602 -4.79508,-14.35624 -10.64707,-44.86281 -10.68889,-55.72154 -0.0147,-3.80674 -0.54868,-7.24391 -1.18672,-7.63838 -1.42691,-0.88182 -10.43905,11.96142 -15.362392,21.89294 -7.43926,15.00695 -11.47755,29.81126 -11.47755,42.07682 0,11.24313 0.0624,11.45557 5.57063,18.98004 9.337862,12.75612 39.659212,53.66133 47.645212,64.27633 10.0776,13.39539 11.26574,16.26703 8.98636,21.72006 -3.31892,7.9397 -4.37113,8.24329 -30.07041,8.66821 -12.90582,0.21328 -24.326082,0.68714 -25.378382,1.0528 -1.25635,0.4365 9.909062,12.51908 32.520532,35.19182 l 34.43376,34.5273 -0.74086,5.52354 c -1.08366,8.0793 -4.00217,10.64979 -12.0916,10.64979 h -6.71145 z M 238.45706,409.31983 c 14.87427,-1.94899 32.4583,-12.20245 40.23034,-23.45881 8.20212,-11.87904 13.35416,-26.42506 9.83749,-27.77445 -0.99949,-0.38333 -9.22364,-1.34641 -18.27588,-2.13955 -15.91381,-1.3946 -20.68853,-2.07903 -37.79195,-5.41702 -15.53429,-3.03173 -29.42797,-7.06568 -49.96121,-14.50559 -6.36354,-2.3059 -11.79859,-3.58858 -12.44907,-2.93811 -2.08515,2.08527 -2.70461,22.02282 -0.91977,29.60326 5.67589,24.10628 27.32612,43.4891 51.99672,46.55125 4.03333,0.50026 7.63333,0.97845 8,1.06223 0.36667,0.0848 4.56667,-0.35858 9.33333,-0.98321 z m 164.66668,-4.81427 c 14.34198,-6.62494 24.2173,-15.59765 29.30846,-26.62953 7.24831,-15.70616 8.22048,-21.35895 6.50159,-37.80442 -1.02172,-9.77532 -0.85876,-9.73498 -16.47672,-4.07547 -12.90125,4.67506 -22.7943,7.5479 -44.66667,12.96991 -18.33859,4.54606 -23.49107,5.42454 -41.81247,7.12854 -11.29269,1.05025 -18.03789,2.24401 -18.42834,3.26153 -0.79859,2.08095 2.6089,12.05635 6.9625,20.38216 5.89871,11.28139 20.0076,22.80647 33.24035,27.15314 14.26489,4.68565 32.09211,3.74832 45.3713,-2.38586 z M 268.45706,265.82612 c -0.73333,-0.27823 -7.63333,-1.48966 -15.33333,-2.69202 -29.64845,-4.62963 -30.70959,-4.88059 -59.33334,-14.03174 -26.37516,-8.43232 -32.24564,-11.13863 -35.40706,-16.32348 -2.48438,-4.07435 -2.58316,-7.51565 -2.58795,-90.14875 -0.004,-74.333952 0.28127,-87.002441 2.11905,-93.999949 3.15667,-12.019354 8.41124,-21.720189 15.79647,-29.162978 14.43047,-14.5429651 29.40501,-20.32345242 49.93428,-19.27568361 15.2289,0.77724804 23.99172,4.27956901 44.14522,17.64390661 17.54378,11.633767 21.2588,13.060871 34,13.060871 12.67608,0 15.21585,-0.982006 35.23028,-13.621856 23.08633,-14.579851 27.78548,-16.42940547 43.43639,-17.09628269 11.16204,-0.47560982 14.74468,-0.09587978 22,2.33180319 15.64716,5.2356584 26.47244,13.6260845 35.38891,27.4291475 9.40424,14.558134 9.13388,11.461164 9.59696,109.936961 0.40746,86.65277 0.3565,88.76432 -2.2436,92.96514 -2.97724,4.80993 -5.57979,6.07341 -27.8144,13.5037 -18.75397,6.26709 -39.86229,11.91458 -54.92787,14.69584 -26.29024,4.85336 -33.79156,5.49865 -62.74339,5.39669 -16.4578,-0.0581 -30.52328,-0.33291 -31.25662,-0.61132 z"
       id="path343" />
  </g>
</svg>
